<?xml version="1.0" encoding="UTF-8" standalone="no"?>
<!-- Created with Inkscape (http://www.inkscape.org/) -->

<svg
   width="175mm"
   height="175mm"
   viewBox="0 0 175 175"
   version="1.1"
   id="svg1"
   xml:space="preserve"
   inkscape:version="1.4.2 (ebf0e940d0, 2025-05-08)"
   sodipodi:docname="gart.svg"
   xmlns:inkscape="http://www.inkscape.org/namespaces/inkscape"
   xmlns:sodipodi="http://sodipodi.sourceforge.net/DTD/sodipodi-0.dtd"
   xmlns="http://www.w3.org/2000/svg"
   xmlns:svg="http://www.w3.org/2000/svg"><sodipodi:namedview
     id="namedview1"
     pagecolor="#ffffff"
     bordercolor="#000000"
     borderopacity="0.25"
     inkscape:showpageshadow="2"
     inkscape:pageopacity="0.0"
     inkscape:pagecheckerboard="0"
     inkscape:deskcolor="#d1d1d1"
     inkscape:document-units="mm"
     inkscape:zoom="0.73008676"
     inkscape:cx="61.63651"
     inkscape:cy="114.36997"
     inkscape:window-width="2560"
     inkscape:window-height="1368"
     inkscape:window-x="0"
     inkscape:window-y="0"
     inkscape:window-maximized="1"
     inkscape:current-layer="layer2" /><defs
     id="defs1" /><g
     inkscape:label="Layer 1"
     inkscape:groupmode="layer"
     id="layer1"
     style="display:inline"
     transform="translate(-0.15746307,-123.71004)" /><g
     inkscape:groupmode="layer"
     id="layer2"
     inkscape:label="Layer 2"
     style="display:inline;opacity:1"
     transform="translate(0.92973648,-122.98525)"><circle
       style="display:inline;opacity:1;fill:#373e48;stroke-width:0.264583"
       id="path2-0"
       cx="86.771027"
       cy="210.32361"
       r="86.613564" /><circle
       style="display:inline;opacity:1;fill:#87aade;stroke-width:0.249084"
       id="path2"
       cx="87.021263"
       cy="210.05603"
       r="81.539963" /><path
       style="display:inline;opacity:1;fill:#794b6a;fill-opacity:1;stroke:#794b6a;stroke-width:1.29718;stroke-miterlimit:4;stroke-dasharray:none;stroke-opacity:1"
       d="m 95.670297,201.87263 7.101473,16.92263 -32.032138,27.34819 -35.960609,-23.26862 z"
       id="path18" /><path
       style="display:inline;opacity:1;fill:#c288af;fill-opacity:1;stroke:#c288af;stroke-width:1.25142;stroke-miterlimit:4;stroke-dasharray:none;stroke-opacity:1"
       d="m 100.59591,215.45828 c -24.700008,4.42668 -31.544589,28.98768 -31.544589,28.98768 l 19.045789,9.42457 h 57.58376 l 7.88614,-10.28135 -6.2494,-6.85423 -27.67591,-6.42582 z"
       id="path17" /><path
       style="display:inline;opacity:1;fill:#6b8c57;fill-opacity:1;stroke:#6b8c57;stroke-width:4.65291;stroke-miterlimit:4;stroke-dasharray:none;stroke-opacity:1"
       d="m 25.881118,243.31676 20.976765,13.29618 -11.350443,2.93754 -5.316029,-3.55596 z"
       id="path10" /><path
       style="display:inline;opacity:1;fill:#8c577b;fill-opacity:1;stroke:#8c577b;stroke-width:1.4374;stroke-miterlimit:4;stroke-dasharray:none;stroke-opacity:1"
       d="m 87.051054,193.2125 19.866836,6.94502 6.12714,-3.0196 19.86684,-38.80137 -27.10804,14.19197 z"
       id="path16" /><path
       style="display:inline;opacity:1;fill:#8c577b;fill-opacity:1;stroke:#8c577b;stroke-width:1.29718;stroke-miterlimit:4;stroke-dasharray:none;stroke-opacity:1"
       d="m 72.854962,209.27627 c -22.513152,14.95842 -8.763511,37.77376 -8.763511,37.77376 L 32.965885,225.59454 44.146914,209.72957 Z"
       id="path15" /><path
       style="display:inline;opacity:1;fill:#6b8c57;fill-opacity:1;stroke:#6b8c57;stroke-width:4.53036;stroke-miterlimit:4;stroke-dasharray:none;stroke-opacity:1"
       d="m 53.974217,198.4681 -27.056652,20.95858 3.074617,-12.32857 10.453708,-13.56144 26.646705,-16.02714 6.559186,-10.89024 49.808849,-17.05454 -22.95716,34.31455 z"
       id="path9" /><path
       style="display:inline;opacity:1;fill:#ffffff;fill-opacity:1;stroke:#ffffff;stroke-width:1.72333;stroke-miterlimit:4;stroke-dasharray:none;stroke-opacity:1"
       d="m 75.390458,208.93797 c 0,0 5.976454,22.87568 8.037305,23.0712 2.060851,0.19552 9.892059,-29.52331 9.892059,-29.52331 z"
       id="path19" /><path
       style="display:inline;opacity:1;fill:#1a1a1a;fill-opacity:1;stroke:#1a1a1a;stroke-width:4.36324;stroke-miterlimit:4;stroke-dasharray:none;stroke-opacity:1"
       id="path11"
       sodipodi:type="arc"
       sodipodi:cx="81.694016"
       sodipodi:cy="174.37334"
       sodipodi:rx="7.7813921"
       sodipodi:ry="10.57665"
       sodipodi:start="0"
       sodipodi:end="6.1341099"
       sodipodi:arc-type="slice"
       d="m 89.475408,174.37334 a 7.7813921,10.57665 0 0 1 -7.491456,10.5693 7.7813921,10.57665 0 0 1 -8.049722,-9.78167 7.7813921,10.57665 0 0 1 6.891586,-11.29824 7.7813921,10.57665 0 0 1 8.563287,8.93972 l -7.695087,1.57089 z" /><path
       style="opacity:1;fill:#b2e592;fill-opacity:1;stroke:#b2e592;stroke-width:4.70227;stroke-miterlimit:4;stroke-dasharray:none;stroke-opacity:1"
       d="M 116.97468,150.49334 C 98.358287,163.48923 103.76305,174.97398 89.350361,183.13418 74.937672,191.2944 71.3345,184.34311 50.91653,199.45459 30.498557,214.5661 23.592478,217.5884 23.892743,230.28205 c 0.300263,12.69366 7.806871,26.29401 35.130922,23.57393 27.324047,-2.72005 23.420613,6.34685 58.251285,4.83569 34.83064,-1.51115 38.13356,-9.97359 37.53302,-13.90258 -0.60052,-3.92899 -6.30554,0.90669 -7.50659,3.02231 -1.20106,2.11559 -15.01322,7.85798 -38.73411,5.74236 -23.720877,-2.11561 -27.023777,-1.81337 -40.83594,-11.48474 -13.812158,-9.67135 -25.522466,-11.48474 -25.522466,-17.83156 0,-6.34684 10.809516,-3.92899 34.830658,-14.80928 24.021158,-10.88027 18.015866,-16.01817 30.326698,-27.50292 12.31083,-11.48473 26.42325,-22.66723 21.31876,-30.52522 -5.10449,-7.85798 -11.7103,-0.9067 -11.7103,-0.9067 z"
       id="path4" /><path
       style="opacity:1;fill:#ffffff;fill-opacity:1;stroke:#ffffff;stroke-width:1.46811;stroke-miterlimit:4;stroke-dasharray:none;stroke-opacity:1"
       id="path13"
       sodipodi:type="arc"
       sodipodi:cx="79.640511"
       sodipodi:cy="177.73534"
       sodipodi:rx="4.7266221"
       sodipodi:ry="4.6553669"
       sodipodi:start="0"
       sodipodi:end="6.1341099"
       sodipodi:arc-type="slice"
       d="m 84.367133,177.73534 a 4.7266221,4.6553669 0 0 1 -4.550507,4.65213 4.7266221,4.6553669 0 0 1 -4.889613,-4.30545 4.7266221,4.6553669 0 0 1 4.186131,-4.97298 4.7266221,4.6553669 0 0 1 5.201565,3.93486 l -4.674198,0.69144 z" /><path
       style="opacity:1;fill:#ffffff;fill-opacity:1;stroke:#ffffff;stroke-width:1.63253;stroke-miterlimit:4;stroke-dasharray:none;stroke-opacity:1"
       id="path14"
       sodipodi:type="arc"
       sodipodi:cx="82.752769"
       sodipodi:cy="167.7191"
       sodipodi:rx="2.0169282"
       sodipodi:ry="1.9496971"
       sodipodi:start="0"
       sodipodi:end="6.1341099"
       sodipodi:arc-type="slice"
       d="m 84.769698,167.7191 a 2.0169282,1.9496971 0 0 1 -1.941777,1.94834 2.0169282,1.9496971 0 0 1 -2.086479,-1.80315 2.0169282,1.9496971 0 0 1 1.786291,-2.08271 2.0169282,1.9496971 0 0 1 2.219595,1.64794 l -1.994559,0.28958 z" /><path
       style="opacity:1;fill:none;fill-opacity:1;stroke:#393d44;stroke-width:4.148;stroke-miterlimit:4;stroke-dasharray:none;stroke-opacity:1"
       d="m 128.79662,166.63295 c -21.74777,17.13377 -26.91555,28.91322 -31.437361,33.62502 -4.521822,4.71179 -21.317117,12.42197 -25.192956,14.13535 -3.875838,1.71338 -26.484903,6.42515 -27.561524,8.99523 -1.076622,2.57005 15.072707,9.42356 20.240495,13.27867 5.167785,3.8551 14.857381,10.7086 19.594524,11.99363 4.737119,1.28502 47.156052,5.78265 60.506162,-0.42835 13.3501,-6.211 7.53635,-8.56687 7.53635,-8.56687"
       id="path20" /><path
       style="opacity:1;fill:none;fill-opacity:1;stroke:#393d44;stroke-width:4.12737;stroke-miterlimit:4;stroke-dasharray:none;stroke-opacity:1"
       d="m 152.50247,242.16005 -6.6241,5.66253"
       id="path21" /></g><path
     style="opacity:1;fill:none;fill-opacity:1;stroke:#393d44;stroke-width:4.11782;stroke-miterlimit:4;stroke-dasharray:none;stroke-opacity:1"
     d="m 103.91853,31.137199 c -15.940581,7.253173 -24.662778,7.253173 -28.572729,9.670902 -3.90995,2.417716 -7.819903,9.368683 -9.624494,11.786399 -1.804593,2.417729 -18.647462,8.462038 -31.58038,21.457313 -12.932914,12.995264 -11.429086,32.639297 -10.226024,40.799117 1.20306,8.15982 2.406123,19.03958 8.120667,21.75952 5.714543,2.71995 27.670426,-6.34653 40.904107,-6.04431 13.233684,0.30221 19.549752,8.76426 53.235503,5.43988 33.68573,-3.32437 30.37731,-10.57754 30.07656,-16.31963 -0.30078,-5.74212 -24.36202,-5.74212 -34.58804,-12.69307 -10.22604,-6.95097 -26.768134,-22.36396 -24.362022,-27.501624 2.406125,-5.137664 12.331402,-1.208864 16.842882,-3.324373 4.51148,-2.11551 18.94822,-39.89246 19.54975,-43.519053 0.60154,-3.626581 -2.10536,-9.368683 -6.91759,-9.368683 -4.81226,0 -22.85819,7.857612 -22.85819,7.857612 z"
     id="path3" /></svg>
